<svg width="80" height="32" viewBox="0 0 80 32" fill="none" xmlns="http://www.w3.org/2000/svg">
<path d="M31.0514 16.0541C31.0514 21.9042 26.7179 25.4432 18.99 26.0571V28.7293H13.9344V26.0571C6.17033 25.4432 1.83691 21.9042 1.83691 16.0541C1.83691 10.2401 6.17033 6.70113 13.9344 6.08723V3.27051H18.99V6.08723C26.7179 6.70113 31.0514 10.2401 31.0514 16.0541ZM7.6148 16.0541C7.6148 19.3764 9.67317 20.6764 13.9344 21.0375V11.1068C9.67317 11.4679 7.6148 12.7679 7.6148 16.0541ZM18.99 21.0375C23.2151 20.6764 25.2735 19.3403 25.2735 16.0541C25.2735 12.7679 23.2151 11.4679 18.99 11.1068V21.0375Z" fill="#0B0B0B"/>
<path d="M47.5858 10.4929H53.3637V28.7293H47.5858V22.1209H38.9912V28.7293H33.2133V10.4929H38.9912V17.0652H47.5858V10.4929Z" fill="#0B0B0B"/>
<path d="M66.8238 3.27051C73.2517 3.27051 78.1629 4.49831 78.1629 12.1901C78.1629 19.9181 73.2517 21.1459 66.8238 21.1459H63.4654V28.7293H57.6875V3.27051H66.8238ZM67.1849 16.0902C70.6155 16.0902 72.385 15.7291 72.385 12.1901C72.385 8.68728 70.6155 8.32616 67.1849 8.32616H63.4654V16.0902H67.1849Z" fill="#0B0B0B"/>
</svg>
