<svg width="96" height="32" viewBox="0 0 96 32" fill="none" xmlns="http://www.w3.org/2000/svg">
<path d="M36.5181 16.0674C36.5181 23.38 31.1013 27.8037 21.4414 28.5711V31.9114H15.1218V28.5711C5.41677 27.8037 0 23.38 0 16.0674C0 8.79986 5.41677 4.37617 15.1218 3.60879V0.0878906H21.4414V3.60879C31.1013 4.37617 36.5181 8.79986 36.5181 16.0674ZM7.22236 16.0674C7.22236 20.2202 9.79533 21.8453 15.1218 22.2966V9.88322C9.79533 10.3346 7.22236 11.9596 7.22236 16.0674ZM21.4414 22.2966C26.7227 21.8453 29.2957 20.1751 29.2957 16.0674C29.2957 11.9596 26.7227 10.3346 21.4414 9.88322V22.2966Z" fill="white"/>
<path d="M57.1861 9.11584H64.4084V31.9114H57.1861V23.6508H46.4428V31.9114H39.2204V9.11584H46.4428V17.3313H57.1861V9.11584Z" fill="white"/>
<path d="M81.2336 0.0878906C89.2684 0.0878906 95.4074 1.62264 95.4074 11.2374C95.4074 20.8973 89.2684 22.4321 81.2336 22.4321H77.0356V31.9114H69.8132V0.0878906H81.2336ZM81.685 16.1125C85.9732 16.1125 88.1851 15.6611 88.1851 11.2374C88.1851 6.85886 85.9732 6.40746 81.685 6.40746H77.0356V16.1125H81.685Z" fill="white"/>
</svg>
