<svg width="148" height="50" viewBox="0 0 148 50" fill="none" xmlns="http://www.w3.org/2000/svg">
<path d="M56.7588 24.6304C56.7588 35.9019 48.4095 42.7205 33.52 43.9033V49.052H23.7791V43.9033C8.81999 42.7205 0.470703 35.9019 0.470703 24.6304C0.470703 13.4284 8.81999 6.60985 23.7791 5.42704V0H33.52V5.42704C48.4095 6.60985 56.7588 13.4284 56.7588 24.6304ZM11.6031 24.6304C11.6031 31.0315 15.569 33.5363 23.7791 34.2321V15.0983C15.569 15.7941 11.6031 18.2988 11.6031 24.6304ZM33.52 34.2321C41.6605 33.5363 45.6264 30.9619 45.6264 24.6304C45.6264 18.2988 41.6605 15.7941 33.52 15.0983V34.2321Z" fill="white"/>
<path d="M88.616 13.9155H99.7484V49.052H88.616V36.3194H72.0566V49.052H60.9242V13.9155H72.0566V26.5786H88.616V13.9155Z" fill="white"/>
<path d="M125.682 0C138.067 0 147.53 2.36563 147.53 17.1856C147.53 32.0752 138.067 34.4408 125.682 34.4408H119.212V49.052H108.079V0H125.682ZM126.378 24.7C132.988 24.7 136.397 24.0042 136.397 17.1856C136.397 10.4366 132.988 9.74083 126.378 9.74083H119.212V24.7H126.378Z" fill="white"/>
</svg>
