<svg width="32" height="32" viewBox="0 0 32 32" fill="none" xmlns="http://www.w3.org/2000/svg">
<path d="M15.9997 30.8686C24.2051 30.8686 30.8569 24.2168 30.8569 16.0114C30.8569 7.80607 24.2051 1.1543 15.9997 1.1543C7.79435 1.1543 1.14258 7.80607 1.14258 16.0114C1.14258 24.2168 7.79435 30.8686 15.9997 30.8686Z" fill="#005FF9"/>
<mask id="mask0_843_3961" style="mask-type:luminance" maskUnits="userSpaceOnUse" x="4" y="4" width="24" height="24">
<path d="M27.4287 4.57129H4.57153V27.4284H27.4287V4.57129Z" fill="white"/>
</mask>
<g mask="url(#mask0_843_3961)">
<path d="M8.30153 4.57129H23.6994C24.6884 4.57129 25.637 4.96419 26.3364 5.66357C27.0358 6.36295 27.4287 7.31151 27.4287 8.30058V23.6984C27.4287 24.6877 27.0356 25.6364 26.3362 26.336C25.6367 27.0354 24.688 27.4284 23.6986 27.4284H8.30083C7.31175 27.4284 6.36319 27.0355 5.66382 26.3362C4.96444 25.6368 4.57153 24.6882 4.57153 23.6992V8.30129C4.57153 7.31203 4.96452 6.36329 5.66402 5.66378C6.36353 4.96427 7.31228 4.57129 8.30153 4.57129Z" fill="#005FF9"/>
<path d="M19.434 16.0049C19.434 16.6853 19.2322 17.3505 18.8543 17.9163C18.4762 18.482 17.9388 18.9231 17.3103 19.1834C16.6816 19.4437 15.9898 19.512 15.3225 19.3792C14.6551 19.2465 14.042 18.9187 13.5609 18.4376C13.0798 17.9564 12.7521 17.3435 12.6194 16.6761C12.4866 16.0088 12.5547 15.317 12.8152 14.6883C13.0755 14.0596 13.5166 13.5224 14.0823 13.1443C14.6481 12.7663 15.3132 12.5645 15.9937 12.5645C16.9057 12.5657 17.7801 12.9285 18.425 13.5736C19.0699 14.2185 19.4328 15.0929 19.434 16.0049ZM15.9937 4.57129C14.2048 4.57308 12.4412 4.99463 10.8448 5.80202C9.24848 6.60941 7.86384 7.78012 6.80226 9.22003C5.7407 10.6599 5.03181 12.3289 4.7326 14.0925C4.43338 15.8563 4.55221 17.6656 5.07951 19.3751C5.60681 21.0845 6.52788 22.6464 7.76864 23.9351C9.00941 25.2237 10.5353 26.2033 12.2235 26.7951C13.9118 27.3867 15.7153 27.574 17.489 27.3418C19.2628 27.1097 20.9575 26.4644 22.4366 25.4583L22.4697 25.4354L20.9284 23.6437L20.9033 23.6609C19.1305 24.7994 17.0176 25.2876 14.925 25.0424C12.8324 24.7971 10.8897 23.8336 9.4282 22.316C7.96671 20.7984 7.07694 18.8207 6.91066 16.7203C6.74438 14.62 7.31186 12.5271 8.51636 10.7984C9.72084 9.06969 11.4878 7.8124 13.5156 7.24091C15.5435 6.66943 17.707 6.81915 19.6368 7.66455C21.5667 8.50993 23.1435 9.99864 24.0984 11.8768C25.0532 13.7548 25.3271 15.906 24.873 17.9635C24.8219 18.3839 24.6158 18.77 24.295 19.0464C23.9742 19.3227 23.5618 19.4695 23.1385 19.4579C22.9448 19.4445 22.7555 19.3929 22.5819 19.3058C22.4083 19.2187 22.2538 19.098 22.1273 18.9507C22.0008 18.8033 21.9049 18.6322 21.845 18.4475C21.7852 18.2627 21.7628 18.0679 21.7791 17.8743V16.0049C21.7812 14.6633 21.3178 13.3624 20.4678 12.3244C19.6178 11.2863 18.4339 10.5754 17.1182 10.3129C15.8025 10.0505 14.4364 10.2527 13.2531 10.8851C12.0699 11.5175 11.1428 12.5409 10.6299 13.7807C10.1171 15.0205 10.0504 16.3999 10.4412 17.6833C10.832 18.9668 11.6561 20.0748 12.7728 20.8185C13.8895 21.5621 15.2296 21.8953 16.5646 21.761C17.8994 21.6267 19.1464 21.0333 20.0927 20.0821C20.4032 20.5698 20.8233 20.9781 21.3195 21.2747C21.8158 21.5713 22.3745 21.7479 22.9511 21.7904C23.0528 21.7995 23.1568 21.8029 23.2598 21.8029C24.0979 21.8009 24.9127 21.526 25.5808 21.0197C26.2884 20.4674 26.8062 19.708 27.0614 18.8473C27.106 18.701 27.1906 18.3648 27.1906 18.3648V18.3522C27.3609 17.5817 27.4403 16.7939 27.4273 16.0049C27.4225 12.974 26.2163 10.0686 24.0731 7.92546C21.9299 5.78229 19.0246 4.57612 15.9937 4.57129Z" fill="#FF9E00"/>
</g>
</svg>
