<svg width="32" height="32" viewBox="0 0 32 32" fill="none" xmlns="http://www.w3.org/2000/svg">
<g clip-path="url(#clip0_843_2148)">
<path d="M32 16C32 32 32 32 16 32C0 32 0 32 0 16C0 0 0 0 16 0C32 0 32 0 32 16Z" fill="#EF8129"/>
<path d="M18.5063 21.4406C19.7688 21.1531 20.9844 20.6531 22.1032 19.95C22.9501 19.4156 23.2063 18.2969 22.6719 17.4469C22.1375 16.5969 21.0188 16.3406 20.1688 16.875C17.6313 18.4719 14.3657 18.4688 11.8282 16.875C10.9782 16.3406 9.85942 16.5969 9.32504 17.4469C8.79067 18.2937 9.04692 19.4156 9.89379 19.95C11.0125 20.6531 12.2282 21.1531 13.4907 21.4406L10.0313 24.9031C9.32195 25.6125 9.32195 26.7593 10.0313 27.4688C10.3875 27.8219 10.85 28 11.3125 28C11.7782 28 12.2407 27.8219 12.597 27.4688L16 24.0656L19.4032 27.4688C20.1125 28.1781 21.2594 28.1781 21.9688 27.4688C22.6782 26.7594 22.6782 25.6094 21.9688 24.9031L18.5063 21.4406ZM16 7.63125C17.4157 7.63125 18.5657 8.78125 18.5657 10.1969C18.5657 11.6094 17.4157 12.7594 16 12.7594C14.5876 12.7594 13.4344 11.6094 13.4344 10.1969C13.4344 8.78125 14.5876 7.63125 16 7.63125ZM16 16.3875C19.4157 16.3875 22.1938 13.6094 22.1938 10.1968C22.1938 6.77813 19.4157 4 16 4C12.5844 4 9.80632 6.77813 9.80632 10.1938C9.80632 13.6094 12.5844 16.3875 16 16.3875Z" fill="white"/>
</g>
<defs>
<clipPath id="clip0_843_2148">
<rect width="32" height="32" fill="white"/>
</clipPath>
</defs>
</svg>
