<svg width="32" height="32" viewBox="0 0 32 32" fill="none" xmlns="http://www.w3.org/2000/svg">
<path fill-rule="evenodd" clip-rule="evenodd" d="M5.19587 5.19612C3.42847 6.96351 3.42847 9.8081 3.42847 15.4973V16.503C3.42847 22.1921 3.42847 25.0367 5.19587 26.8041C6.96327 28.5716 9.80786 28.5716 15.497 28.5716H16.5028C22.1919 28.5716 25.0365 28.5716 26.8039 26.8041C28.5713 25.0367 28.5713 22.1921 28.5713 16.503V15.4973C28.5713 9.8081 28.5713 6.96351 26.8039 5.19612C25.0365 3.42871 22.1919 3.42871 16.5028 3.42871H15.497C9.80786 3.42871 6.96327 3.42871 5.19587 5.19612ZM7.77109 11.6006C7.90595 18.1409 11.3477 22.0692 17.0206 22.0692H17.3496V18.3435C19.4157 18.5527 20.9564 20.0785 21.5854 22.0692H24.5642C23.7561 19.0913 21.6608 17.4409 20.3586 16.812C21.6599 16.0341 23.5015 14.1598 23.9352 11.6006H21.2252C20.6565 13.6817 18.9648 15.57 17.3486 15.7492V11.6006H14.5952V18.8577C12.9197 18.4391 10.7338 16.4049 10.6442 11.6006H7.77109Z" fill="#0077FF"/>
</svg>
