<svg width="32" height="32" viewBox="0 0 32 32" fill="none" xmlns="http://www.w3.org/2000/svg">
<path fill-rule="evenodd" clip-rule="evenodd" d="M15.9994 29.7137C23.5736 29.7137 29.7137 23.5736 29.7137 15.9994C29.7137 8.42525 23.5736 2.28516 15.9994 2.28516C8.42525 2.28516 2.28516 8.42525 2.28516 15.9994C2.28516 23.5736 8.42525 29.7137 15.9994 29.7137ZM20.7965 24.2423H17.9312V10.011H16.6526C14.3084 10.011 13.0769 11.195 13.0769 12.9472C13.0769 14.9364 13.9294 15.8598 15.6817 17.0438L17.1262 18.0146L12.9585 24.2423H9.85659L13.598 18.6776C11.4431 17.1385 10.2355 15.6466 10.2355 13.113C10.2355 9.93998 12.4376 7.78516 16.6289 7.78516H20.7965V24.2423Z" fill="white"/>
</svg>
