<svg width="32" height="32" viewBox="0 0 32 32" fill="none" xmlns="http://www.w3.org/2000/svg">
<path fill-rule="evenodd" clip-rule="evenodd" d="M16.0004 29.7137C23.5746 29.7137 29.7147 23.5736 29.7147 15.9994C29.7147 8.42525 23.5746 2.28516 16.0004 2.28516C8.42622 2.28516 2.28613 8.42525 2.28613 15.9994C2.28613 23.5736 8.42622 29.7137 16.0004 29.7137ZM20.7974 24.2423H17.9322V10.011H16.6536C14.3093 10.011 13.0779 11.195 13.0779 12.9472C13.0779 14.9364 13.9304 15.8598 15.6827 17.0438L17.1272 18.0146L12.9595 24.2423H9.85756L13.5989 18.6776C11.4441 17.1385 10.2364 15.6466 10.2364 13.113C10.2364 9.93998 12.4386 7.78516 16.6299 7.78516H20.7974V24.2423Z" fill="#FC3F1D"/>
</svg>
